<svg width="100" height="100" viewBox="0 0 100 100" fill="none" xmlns="http://www.w3.org/2000/svg">
<path d="M75.652 10.4933C48.6118 -2.80743 19.6401 9.32624 9.5 33.1277C10.6002 34.9522 10.4717 35.6647 10.345 36.9776C9.91481 38.1054 9.86215 38.4943 10.1036 39.0776C10.345 39.4277 11.1125 39.3664 10.8279 40.1277C10.468 41.3411 10.3318 41.7643 10.1036 42.4611C9.69145 46.8784 10.0204 48.3057 10.1036 51.7949V52.495C10.1293 52.9032 10.246 52.9994 10.7072 52.845C12.1525 51.4275 12.7515 49.867 13.6043 46.3113L13.8458 44.0946L14.3286 43.6279L20.2437 38.3776V37.3276L21.6923 36.7442L23.503 36.6275L24.4687 36.0442L24.7101 37.9109L25.7966 38.7276L25.3137 42.4611L26.4001 42.9278L28.0902 41.7611C28.5919 44.6142 28.5772 46.1594 28.3316 48.8781L28.0902 50.1615L27.6073 51.4449L28.3316 51.9116L29.0559 53.6617L29.5387 55.4118L29.9009 57.0452L30.8666 57.8619V58.6786L32.3152 59.4953L33.4016 60.4287H34.2466L34.1259 59.962L33.6431 59.7286L33.1602 58.0952L33.0395 55.1784L32.3152 54.3617L30.3838 53.0783L29.7802 52.845V50.7449L29.0559 50.0448L29.7802 48.1781L30.0216 47.0114L30.263 45.9613L30.9873 45.8446L31.5909 46.6613L32.9188 47.0114L33.0395 48.1781L34.0052 48.8781L34.9709 49.3448V51.2116L37.3852 49.1115L40.2824 47.0114V43.3945L37.7474 40.361L37.3852 38.961V38.1443L40.2824 36.1608L41.4896 36.0442L42.0931 37.0942L42.576 37.4442L42.0931 37.7943L41.1274 37.9109L40.5238 38.611L40.7653 39.5443L41.8517 39.7777L42.6967 38.961L43.421 38.1443V37.4442L43.0589 37.0942L42.6967 36.5109L43.421 36.1608L45.111 35.8108L46.5596 34.9941L47.2839 34.6441H49.9396L50.4225 33.9441L50.5432 33.244L51.9918 33.0107L52.9575 31.844H53.6818L54.044 31.1439L53.9232 30.6772L56.4583 28.1105L57.1826 26.8271L56.6997 26.7104L56.4583 26.2437L56.8204 25.427L56.0961 24.4936L55.8547 23.6769L55.734 23.0935L54.7683 22.5102V21.8102L56.8204 20.8768L57.6654 20.2934V19.8267L56.6997 19.5934L55.4925 19.8267L55.1304 20.1767L54.044 19.9434L53.6818 19.1267L53.9232 18.7767L56.8204 17.3766L57.3033 17.7266L56.8204 18.8933H57.3033L58.3897 18.1933L59.5969 18.0766L60.3212 18.4267V19.01L59.8383 19.8267L60.0797 20.1767L60.5626 19.9434H61.5283V22.3935L61.8905 22.6269L63.0976 22.2768L64.6669 22.0435L64.7876 20.5268L64.5462 19.8267L63.7012 19.01L63.2183 18.31L64.1841 17.7266L65.0291 17.0266L65.7534 15.8599L66.9605 15.7432L67.8055 15.8599L69.2541 15.6265L69.9784 14.8098L71.9098 13.2931L72.7548 12.3597V10.7263L72.9963 10.2596L73.7206 10.4933L74.3241 12.243L74.5656 13.6431L74.6863 14.4598L75.0484 14.8098L74.807 15.5098L73.962 15.6265C74.0022 16.1321 74.1069 17.1666 74.2034 17.2599C74.3241 17.3766 74.5656 18.66 74.5656 18.7767C74.5656 18.87 73.5194 19.5934 72.9963 19.9434L70.4613 21.4601L68.4091 21.3435C67.8458 21.7324 66.6949 22.5102 66.5984 22.5102C66.5018 22.5102 65.8338 22.8991 65.5119 23.0935L65.0291 24.4936L65.7534 25.777H66.9605L67.3227 24.8436C67.0812 24.4547 66.6708 23.6769 66.9605 23.6769C67.2502 23.6769 67.6446 23.5991 67.8055 23.5602L68.2884 24.1436C68.8115 23.8714 69.8818 23.3036 69.9784 23.2102L70.4613 22.7435L71.1855 23.4436L72.3927 23.2102L72.7548 22.5102L74.3241 22.3935C74.807 22.2379 75.7969 21.8802 75.8934 21.6935C76.0142 21.4601 76.2556 20.1767 76.2556 19.9434C76.2556 19.71 76.3763 18.8933 76.497 18.66L76.8592 17.96L75.7727 17.2599L75.2899 16.3266H76.0142C76.2073 16.3266 77.8651 15.7821 78.6699 15.5098L78.3077 14.8098H77.9456H76.497L75.7727 14.4598C75.652 14.3042 75.4106 13.9698 75.4106 13.8764C75.4106 13.7598 75.2899 13.4097 75.4106 13.4097C75.5072 13.4097 75.9337 13.2542 76.1349 13.1764L76.2556 12.8264L75.7727 12.4764L75.2899 12.243L75.5313 11.6597L76.0142 11.4263L75.8934 10.843L75.652 10.4933Z" fill="#51362D"/>
<path d="M13.2422 54.3617C12.9525 54.6417 12.2362 54.7895 11.9143 54.8284V53.0783L12.3972 51.7949L12.7593 50.7449L13.2422 51.2116L13.6043 52.845C13.6043 53.2339 13.5319 54.0817 13.2422 54.3617Z" fill="#51362D"/>
<path d="M54.889 31.9606L53.9232 33.4774L53.6818 34.2941L54.5268 35.1108L55.4925 34.2941C55.6937 33.9441 56.0961 33.1974 56.0961 33.0107C56.0961 32.7773 56.4583 31.9606 56.4583 31.844C56.4583 31.7506 56.0559 31.5717 55.8547 31.4939L54.889 31.9606Z" fill="#51362D"/>
<path d="M54.5268 46.6613L55.1304 45.4946L55.3718 45.2613L55.8547 45.1446L56.9411 45.0279V45.6113V46.1947C57.1423 46.3891 57.5447 46.8013 57.5447 46.8947C57.5447 46.988 57.8666 46.778 58.0276 46.6613V46.3113V45.6113C57.9471 45.4557 57.7861 45.0979 57.7861 44.9113V44.5612L57.424 44.0946H55.4925L55.8547 43.3945L55.1304 42.9278V42.1111L56.0961 41.7611L56.3376 39.7777C56.2571 39.5054 55.9754 38.961 55.4925 38.961C55.0097 38.961 54.2452 39.0719 53.9232 39.1274L53.6818 41.4111C53.4404 41.5278 52.9334 41.8311 52.8368 42.1111C52.7402 42.3911 53.5209 43.239 53.9232 43.6279L54.2854 44.7946L53.9232 45.4946L54.5268 46.6613Z" fill="#51362D"/>
<path d="M55.3718 48.4114C55.6535 48.4503 56.241 48.5281 56.3376 48.5281L56.4583 48.8781L56.3376 49.7547C56.6595 49.8903 57.3274 50.1615 57.424 50.1615C57.5206 50.1615 58.108 49.6948 58.3897 49.4615L58.8726 49.2281C58.7116 48.9559 58.3414 48.3881 58.1483 48.2948C57.9069 48.1781 57.5447 48.2948 57.424 48.1781C57.3274 48.0847 57.0618 47.5947 56.9411 47.3614L56.3376 46.8947C56.1364 47.0891 55.7098 47.4781 55.6133 47.4781C55.5167 47.4781 55.4121 48.1003 55.3718 48.4114Z" fill="#51362D"/>
<path d="M59.114 48.4114L58.7519 47.0114L58.9933 46.078C59.1542 46.0002 59.5486 45.8446 59.8383 45.8446C60.128 45.8446 59.959 46.3891 59.8383 46.6613V47.5947C59.7578 47.9058 59.5727 48.5514 59.4762 48.6448C59.3796 48.7381 59.1945 48.5281 59.114 48.4114Z" fill="#51362D"/>
<path d="M58.5104 51.2116L57.5447 50.7449C57.3838 50.7449 57.0377 50.7682 56.9411 50.8615C56.8446 50.9549 56.3376 51.2893 56.0961 51.4449C55.9352 51.6394 55.6133 52.0516 55.6133 52.1449C55.6133 52.2383 55.7742 52.495 55.8547 52.6116C56.0559 52.5338 56.5066 52.3549 56.6997 52.2616C56.8928 52.1683 57.5045 52.2227 57.7861 52.2616L58.269 53.3117L58.3897 54.0117C58.5909 54.1673 59.1623 54.5017 59.8383 54.5951C60.6833 54.7117 59.8383 54.4784 59.8383 54.245V53.3117C59.8383 53.0317 59.9993 52.9616 60.0797 52.9616L60.804 53.6617L61.2869 52.845C61.3674 52.3005 61.5042 51.1882 61.4076 51.0949C61.2869 50.9782 61.0455 50.1615 60.9247 49.9282C60.8282 49.7415 60.3212 49.3837 60.0797 49.2281C59.8785 49.617 59.452 50.3949 59.3554 50.3949C59.2589 50.3949 58.7519 50.9393 58.5104 51.2116Z" fill="#51362D"/>
<path d="M26.4001 55.4118C26.038 55.4118 25.193 55.0617 24.8308 55.1784L24.7101 56.2285L24.8308 57.0452L26.5209 57.5119L27.0037 58.6786C27.2854 59.1064 27.897 60.0553 28.0902 60.4287C28.2833 60.802 28.9754 61.362 29.2973 61.5954C29.5387 62.0232 30.0216 62.9488 30.0216 63.2288C30.0216 63.5788 30.3838 64.6289 30.3838 64.9789C30.3838 65.3289 31.3495 66.379 32.0738 66.8456C32.6532 67.219 33.0395 67.6235 33.1602 67.779L34.2466 68.8291H35.3331V66.8456C35.3331 65.9123 35.5745 65.9123 35.5745 65.7956C35.5745 65.7023 36.1379 65.3678 36.4195 65.2122V64.9789C36.2988 64.59 36.0091 63.7655 35.8159 63.5788C35.6228 63.3921 35.4136 63.6566 35.3331 63.8122L34.9709 64.6289C34.7295 64.3955 34.1984 63.9055 34.0052 63.8122C33.7638 63.6955 33.4016 63.4621 33.1602 63.2288C32.9671 63.0421 33.0797 62.3732 33.1602 62.0621L32.9188 61.012L31.3495 59.4953L30.3838 59.0286L29.418 58.5619L29.2973 58.0952L28.3316 57.3952L27.3659 56.1118C27.1647 55.8785 26.6899 55.4118 26.4001 55.4118Z" fill="#51362D"/>
<path d="M53.5611 60.1953C53.4404 60.4287 52.2332 61.4787 51.8711 61.7121C51.5089 61.9454 51.6297 61.9454 51.6297 61.9454L51.7504 62.5288C51.7101 62.801 51.6055 63.3921 51.5089 63.5788C51.4124 63.7655 51.3882 64.1233 51.3882 64.2789V65.0956C51.3882 65.2122 51.2675 65.5623 51.2675 65.6789C51.2675 65.7723 51.348 65.8734 51.3882 65.9123C51.6297 65.9123 52.1367 65.9356 52.2332 66.0289C52.354 66.1456 52.2332 66.6123 52.1125 66.729C51.9918 66.8456 52.1125 66.8456 51.9918 67.079C51.8711 67.3123 51.8711 67.779 51.8711 67.8957C51.8711 68.0124 51.7504 68.3624 51.7504 68.4791C51.7504 68.5957 52.1125 68.8291 52.2332 68.8291C52.3298 68.8291 52.9173 68.9846 53.199 69.0624C53.2392 68.9458 53.3197 68.6891 53.3197 68.5957C53.3197 68.4791 53.4404 68.129 53.4404 68.0124C53.4404 67.8957 53.3197 67.079 53.3197 66.8456C53.3197 66.6123 53.199 66.0289 53.199 65.7956C53.199 65.5623 53.3197 65.2122 53.4404 64.9789C53.5611 64.7455 53.6818 64.9789 53.8025 64.9789C53.8991 64.9789 54.1647 65.29 54.2854 65.4456L54.4061 66.0289C54.4464 66.1456 54.5268 66.4256 54.5268 66.6123C54.5268 66.8456 54.7683 67.429 54.889 67.5457C54.9855 67.639 55.3316 67.8179 55.4925 67.8957C55.6133 68.0902 55.903 68.5257 56.0961 68.7124C56.3376 68.9457 56.579 68.5957 56.6997 68.4791C56.7963 68.3857 56.9009 68.2068 56.9411 68.129L57.1826 67.6624C57.0618 67.3901 56.7963 66.8223 56.6997 66.729C56.6031 66.6356 56.3376 66.5345 56.2168 66.4956C56.1364 66.3012 55.9513 65.8423 55.8547 65.5623L55.6133 64.8622C55.6133 64.59 55.6374 64.0222 55.734 63.9288C55.8547 63.8122 56.2168 63.4622 56.2168 63.3455C56.2168 63.2288 56.8204 62.8788 56.9411 62.7621C57.0618 62.6454 57.1826 62.4121 57.1826 62.2954C57.1826 62.2021 57.0216 62.0232 56.9411 61.9454C56.7802 61.9843 56.4341 62.0854 56.3376 62.1788C56.2168 62.2954 55.734 62.4121 55.6133 62.4121C55.5167 62.4121 55.2511 62.7232 55.1304 62.8788L54.6475 63.1121L54.1647 62.9955L54.044 62.7621C54.0842 62.5677 54.1647 62.1554 54.1647 62.0621V61.5954C54.1647 61.4787 54.1647 61.4787 54.4061 61.2454C54.5993 61.0587 54.889 61.012 55.0097 61.012H56.3376H57.1826H57.7861L58.5104 61.2454L59.114 61.1287L59.3554 61.012V60.5453L58.9933 60.1953L57.5447 59.962L54.889 59.7286C54.4866 59.8064 53.6577 60.0087 53.5611 60.1953Z" fill="#51362D"/>
<path d="M40.7653 59.4953C40.6446 59.4953 40.041 59.1453 39.7996 59.0286L39.6788 59.3786C39.5984 59.4564 39.4374 59.6353 39.4374 59.7286C39.4374 59.8453 39.196 60.1953 39.196 60.4287V61.1287C39.196 61.4787 39.0753 61.7121 39.196 61.9454C39.3167 62.1788 39.196 62.1788 39.4374 62.5288C39.6788 62.8788 39.6788 63.1121 39.7996 63.1121C39.8961 63.1121 40.0812 63.2677 40.1617 63.3455L40.6446 64.0455C40.6446 64.3566 40.6687 65.0022 40.7653 65.0956C40.8618 65.1889 41.0469 65.2122 41.1274 65.2122H41.4896H41.4896C41.731 65.2122 41.9724 65.2122 42.2139 65.3289L42.4553 65.4456L43.0589 65.7956L43.3003 65.5623C43.5015 65.5234 44.0005 65.4456 44.3867 65.4456H45.2317C45.3525 65.4456 45.8353 66.0289 45.8353 66.1456C45.8353 66.2389 45.9158 66.4179 45.956 66.4956H47.2839H47.8875C47.9277 66.379 48.0323 66.0989 48.1289 65.9123C48.2255 65.7256 48.2496 65.4456 48.2496 65.3289V64.3955L48.6118 64.0455L48.7325 63.5788C48.7727 63.5788 48.8773 63.5322 48.9739 63.3455C49.0946 63.1121 49.3361 62.7621 49.4568 62.5288C49.5534 62.3421 49.5775 62.0621 49.5775 61.9454L50.0604 61.7121L50.3018 62.1788L50.7846 62.2954C50.8249 62.2176 50.9054 62.0387 50.9054 61.9454C50.9054 61.8287 50.6639 61.5954 50.6639 61.4787C50.6639 61.3854 50.2616 61.2065 50.0604 61.1287V60.7787L50.6639 60.662L51.1468 60.8954L51.3882 60.662L51.0261 59.962L50.4225 59.3786L50.1811 58.7953C50.1006 58.6008 49.9396 58.1886 49.9396 58.0952C49.9396 58.0019 49.8592 57.5896 49.8189 57.3952C49.8994 57.2396 50.0845 56.9052 50.1811 56.8118C50.3018 56.6952 50.5432 56.2285 50.7846 56.1118C51.0261 55.9951 51.2675 55.6451 51.3882 55.6451C51.4848 55.6451 51.7504 55.334 51.8711 55.1784L51.2675 54.5951L50.5432 54.245L50.0604 53.895L49.8189 53.0783L49.5775 52.6116C49.4568 52.5727 49.2154 52.5183 49.2154 52.6116C49.2154 52.705 48.5715 53.3506 48.2496 53.6617C47.9277 54.0895 47.2839 54.9684 47.2839 55.0617C47.2839 55.1551 46.3182 55.334 45.8353 55.4118C45.5939 55.6451 45.0627 56.1351 44.8696 56.2285C44.6282 56.3451 44.0246 57.1618 43.7832 57.5119C43.5417 57.8619 42.6967 58.3286 42.4553 58.5619C42.2621 58.7486 41.8115 59.1064 41.6103 59.2619C41.3689 59.3397 40.8618 59.4953 40.7653 59.4953Z" fill="#51362D"/>
<path d="M39.7996 70.1125C39.5581 69.9569 38.6407 69.5291 36.9024 69.0624H36.1781C35.9367 69.0624 36.0574 69.4124 35.9367 69.7625C35.8401 70.0425 35.8159 70.5792 35.8159 70.8125L37.2645 71.3959L38.9545 71.6292C39.4374 71.707 40.4514 71.8626 40.6446 71.8626C40.886 71.8626 41.731 72.0959 42.2139 72.2126C42.6967 72.3292 44.0246 72.3292 44.266 72.2126C44.5075 72.0959 45.2317 72.4459 45.4732 72.4459H46.801C47.2839 72.4459 47.0022 72.2126 46.801 72.0959L46.1975 71.6292L45.4732 71.0458H44.3867L44.6282 70.8125C44.8294 70.7347 45.2317 70.5558 45.2317 70.4625C45.2317 70.3691 45.3927 70.1902 45.4732 70.1125L45.2317 69.8791L44.3867 70.1125H43.7832H43.3003L42.6967 69.6458L41.731 69.4124C41.57 69.568 41.224 69.9258 41.1274 70.1125C41.0067 70.3458 40.7653 70.1125 40.6446 70.1125H39.7996Z" fill="#51362D"/>
<path d="M49.9396 71.8626C49.5775 71.8626 48.6118 71.8625 48.3703 71.7459C48.3301 71.707 48.2255 71.6292 48.1289 71.6292C48.0323 71.6292 47.8472 71.707 47.7668 71.7459L47.8875 72.2126L48.3703 72.5626L49.2154 72.4459C49.6177 72.5237 50.4708 72.6793 50.6639 72.6793H51.2675C51.6297 72.6793 51.6297 72.4459 51.6297 72.2126C51.6297 72.0259 51.5492 71.9014 51.5089 71.8626C51.348 71.707 51.0019 71.3959 50.9054 71.3959C50.7846 71.3959 50.3018 71.8626 49.9396 71.8626Z" fill="#51362D"/>
<path d="M58.8726 72.7959C58.4863 72.8893 58.4702 73.0682 58.5104 73.146L57.7106 73.3793L57.424 74.0793L58.1483 74.196H58.8726C59.2347 74.196 59.3554 73.7293 59.5969 73.6126C59.79 73.5193 60.0797 73.4182 60.2004 73.3793C60.5626 73.2237 61.3835 72.8659 61.7697 72.6793C62.156 72.4926 61.9307 72.2126 61.7697 72.0959L61.5283 71.8626L60.804 72.0959C60.5626 72.1348 60.0556 72.2126 59.959 72.2126C59.8383 72.2126 59.3554 72.6793 58.8726 72.7959Z" fill="#51362D"/>
<path d="M62.9769 58.7953C62.9769 58.5152 62.8159 58.6786 62.7355 58.7953L62.4458 59.2619C62.3411 59.4564 62.1319 59.892 62.1319 60.0787C62.1319 60.312 62.1319 60.662 62.0112 60.7787C61.8905 60.8954 62.0112 61.4787 62.0112 61.5954V62.5288V63.4622L62.2526 64.0455C62.4136 64.0844 62.7838 64.1388 62.9769 64.0455C63.17 63.9522 63.1379 63.9288 63.0976 63.9288C63.1379 63.8899 63.2183 63.7422 63.2183 63.4622C63.2183 63.2288 62.9769 63.3455 62.8562 63.1121C62.7355 62.8788 62.7355 63.1121 62.7355 62.9955V62.7621C62.7355 62.6688 62.8159 62.6454 62.8562 62.6454L62.9769 62.4121L63.339 62.0621C63.4195 62.0232 63.6046 61.9221 63.7012 61.8287C63.8219 61.7121 64.1841 61.5954 64.3048 61.5954C64.4013 61.5954 64.4255 61.4398 64.4255 61.362C64.345 61.2843 64.1599 61.1287 64.0633 61.1287C63.9668 61.1287 64.0231 60.9731 64.0633 60.8954C63.9426 60.8176 63.7012 60.6387 63.7012 60.5453C63.7012 60.452 63.7817 60.3509 63.8219 60.312C63.9024 60.2731 64.0633 60.1487 64.0633 59.962V59.7286H63.7012H63.2183L63.0976 59.3786C63.0574 59.3008 62.9769 59.0753 62.9769 58.7953Z" fill="#51362D"/>
<path d="M61.5283 65.0956L60.9247 65.5623L60.804 66.1456L61.4076 66.2623C61.5686 66.2623 61.9146 66.2389 62.0112 66.1456C62.1077 66.0523 62.1319 65.9512 62.1319 65.9123L62.0112 65.4456L61.5283 65.0956Z" fill="#51362D"/>
<path d="M66.5984 66.2623C65.6326 65.4456 64.2926 65.4498 63.0976 66.2623L62.8562 66.0289V65.5623L63.0976 65.3289L63.5805 65.0956L63.9426 64.7455H64.5462C64.7393 64.7455 65.19 64.8233 65.3912 64.8622L65.8741 65.2122L66.3569 65.5623L66.4776 65.9123L66.5984 66.2623Z" fill="#51362D"/>
<path d="M49.4568 86.7966C49.0142 87.2633 48.0565 88.2433 47.7668 88.43H46.801L46.1975 89.2467L46.4389 91.3468L47.2839 91.5802L47.5253 92.6302L47.2839 93.2136V94.0303C47.3065 94.4079 47.5125 94.5928 48.3703 94.847C62.0112 95.6637 71.3958 93.4125 84.3435 83.1798V82.1297L83.8607 80.8463L83.4985 79.3296C83.0559 78.7073 82.1224 77.3695 81.9292 76.9961C81.6878 76.5294 81.5671 75.0127 81.2049 74.6627C80.8428 74.3127 80.4806 76.1794 80.1185 76.5294C79.8288 76.8095 79.4344 78.7462 79.2735 79.6796C79.3137 80.263 79.37 81.523 79.2735 81.8964C79.1769 82.2697 78.5894 82.9075 78.3077 83.1798L75.5313 82.1297L72.6341 80.8463V79.6796C72.8353 79.2518 73.3826 78.2095 73.962 77.4628C74.5414 76.7161 74.2034 76.6072 73.962 76.6461L70.4613 75.7127L68.6505 75.246L69.2541 76.4128C68.892 76.4906 67.9987 76.6695 67.3227 76.7628C66.6466 76.8561 66.2362 77.2684 66.1155 77.4628L65.8741 78.5129L65.3912 80.1463H64.6669C64.2243 79.7574 63.2666 78.8862 62.9769 78.5129C62.6872 78.1395 62.0514 78.3573 61.7697 78.5129L59.2347 79.6796L58.9933 80.8463L58.1483 82.2464H57.5447H56.2168C55.9754 82.7131 55.4443 83.7165 55.2511 83.9965C55.058 84.2765 54.6073 85.2799 54.4061 85.7466C54.1647 85.6688 53.5128 85.5599 52.8368 85.7466C51.9918 85.9799 51.5089 86.3299 51.1468 86.7966C50.8571 87.17 49.8994 86.9522 49.4568 86.7966Z" fill="#51362D"/>
<path d="M68.1677 63.9288L67.8055 64.5122H68.1677L69.3748 64.2789L69.6162 64.7455H68.6505C68.4574 64.7455 68.57 65.1344 68.6505 65.3289L69.0127 65.6789L68.8919 66.4956L69.9784 66.2623L71.7891 66.729C72.9158 67.1179 75.2416 67.9657 75.5313 68.2457C75.821 68.5257 76.2958 69.6069 76.497 70.1125C76.3763 70.268 76.0866 70.6492 75.8934 70.9292C75.7003 71.2092 75.5715 71.2792 75.5313 71.2792L75.8934 71.8626L76.8592 71.7459L78.6699 72.0959C78.8711 72.2515 79.2735 72.6093 79.2735 72.7959C79.2735 73.0293 80.3599 73.146 80.7221 73.146H81.9292C82.1706 72.9904 82.6535 72.6559 82.6535 72.5626C82.6535 72.4693 82.8145 71.9792 82.8949 71.7459L83.4985 71.3959L85.43 71.2792L86.275 72.4459L86.8785 73.846L87.6028 74.0793H88.4478C88.8341 74.0793 89.3331 74.2349 89.5343 74.3127L90.0171 74.896H90.5V74.0793C90.2183 73.8849 89.6309 73.496 89.5343 73.496C89.4377 73.496 89.0112 72.8737 88.81 72.5626L87.965 71.7459L87.2407 70.9292V70.3458L87.6028 69.4124L86.8785 68.7124L85.7921 68.4791L85.5507 67.8957V67.5457L84.4642 67.079L84.1021 66.4956L82.5328 65.5623L81.9292 65.6789L81.2049 65.0956L79.7563 64.8622L78.6699 64.7455L77.5835 64.5122L76.497 63.9288C76.2958 63.7344 75.8693 63.3455 75.7727 63.3455C75.652 63.3455 75.2899 63.4622 75.1692 63.5788C75.0726 63.6722 74.807 64.3955 74.6863 64.7455C74.0827 64.9789 72.8273 65.4922 72.6341 65.6789C72.441 65.8656 72.2317 65.7567 72.1513 65.6789L71.7891 65.2122V64.8622L71.1855 64.2789V63.3455L70.9441 62.6454L69.9784 62.5288H68.6505L67.3227 62.2954L66.5984 62.5288C66.5984 62.6454 66.5742 62.9255 66.4776 63.1121C66.3811 63.2988 67.0007 63.3455 67.3227 63.3455L67.8055 63.4622L68.1677 63.9288Z" fill="#51362D"/>
<path d="M62.3733 59.3786L62.4458 59.2619M62.4458 59.2619L62.7355 58.7953C62.8159 58.6786 62.9769 58.5152 62.9769 58.7953C62.9769 59.0753 63.0574 59.3008 63.0976 59.3786L63.2183 59.7286C63.339 59.7286 63.6046 59.7286 63.7012 59.7286C63.7978 59.7286 63.9829 59.7286 64.0633 59.7286C64.0633 59.7286 64.0633 59.7753 64.0633 59.962C64.0633 60.1487 63.9024 60.2731 63.8219 60.312C63.7817 60.3509 63.7012 60.452 63.7012 60.5453C63.7012 60.6387 63.9426 60.8176 64.0633 60.8954C64.0231 60.9731 63.9668 61.1287 64.0633 61.1287C64.1599 61.1287 64.345 61.2843 64.4255 61.362C64.4255 61.4398 64.4013 61.5954 64.3048 61.5954C64.1841 61.5954 63.8219 61.7121 63.7012 61.8287C63.6046 61.9221 63.4195 62.0232 63.339 62.0621L62.9769 62.4121L62.8562 62.6454C62.8159 62.6454 62.7355 62.6688 62.7355 62.7621C62.7355 62.8788 62.7355 62.8788 62.7355 62.9955C62.7355 63.1121 62.7355 62.8788 62.8562 63.1121C62.9769 63.3455 63.2183 63.2288 63.2183 63.4622C63.2183 63.7422 63.1379 63.8899 63.0976 63.9288C63.1379 63.9288 63.17 63.9522 62.9769 64.0455C62.7838 64.1388 62.4136 64.0844 62.2526 64.0455L62.0112 63.4622V62.5288C62.0112 62.2565 62.0112 61.6887 62.0112 61.5954C62.0112 61.4787 61.8905 60.8954 62.0112 60.7787C62.1319 60.662 62.1319 60.312 62.1319 60.0787C62.1319 59.892 62.3411 59.4564 62.4458 59.2619ZM9.5 33.1277C19.6401 9.32624 48.6118 -2.80743 75.652 10.4933L75.8934 10.843L76.0142 11.4263L75.5313 11.6597L75.2899 12.243L75.7727 12.4764L76.2556 12.8264L76.1349 13.1764C75.9337 13.2542 75.5072 13.4097 75.4106 13.4097C75.2899 13.4097 75.4106 13.7598 75.4106 13.8764C75.4106 13.9698 75.652 14.3042 75.7727 14.4598L76.497 14.8098C76.9396 14.8098 77.849 14.8098 77.9456 14.8098C78.0422 14.8098 78.2273 14.8098 78.3077 14.8098L78.6699 15.5098C77.8651 15.7821 76.2073 16.3266 76.0142 16.3266C75.821 16.3266 75.4508 16.3266 75.2899 16.3266L75.7727 17.2599L76.8592 17.96C76.7787 18.1155 76.5936 18.4733 76.497 18.66C76.3763 18.8933 76.2556 19.71 76.2556 19.9434C76.2556 20.1767 76.0142 21.4601 75.8934 21.6935C75.7969 21.8802 74.807 22.2379 74.3241 22.3935L72.7548 22.5102L72.3927 23.2102L71.1855 23.4436L70.4613 22.7435C70.3405 22.8602 70.075 23.1169 69.9784 23.2102C69.8818 23.3036 68.8115 23.8714 68.2884 24.1436L67.8055 23.5602C67.6446 23.5991 67.2502 23.6769 66.9605 23.6769C66.6708 23.6769 67.0812 24.4547 67.3227 24.8436L66.9605 25.777H65.7534L65.0291 24.4936L65.5119 23.0935C65.8338 22.8991 66.5018 22.5102 66.5984 22.5102C66.6949 22.5102 67.8458 21.7324 68.4091 21.3435L70.4613 21.4601L72.9963 19.9434C73.5194 19.5934 74.5656 18.87 74.5656 18.7767C74.5656 18.66 74.3241 17.3766 74.2034 17.2599C74.1069 17.1666 74.0022 16.1321 73.962 15.6265L74.807 15.5098L75.0484 14.8098L74.6863 14.4598L74.5656 13.6431L74.3241 12.243L73.7206 10.4933L72.9963 10.2596L72.7548 10.7263V12.3597L71.9098 13.2931L69.9784 14.8098L69.2541 15.6265L67.8055 15.8599L66.9605 15.7432L65.7534 15.8599L65.0291 17.0266L64.1841 17.7266L63.2183 18.31L63.7012 19.01L64.5462 19.8267L64.7876 20.5268L64.6669 22.0435L63.0976 22.2768L61.8905 22.6269L61.5283 22.3935V19.9434H60.5626L60.0797 20.1767L59.8383 19.8267L60.3212 19.01V18.4267L59.5969 18.0766L58.3897 18.1933L57.3033 18.8933H56.8204L57.3033 17.7266L56.8204 17.3766L53.9232 18.7767L53.6818 19.1267L54.044 19.9434L55.1304 20.1767L55.4925 19.8267L56.6997 19.5934L57.6654 19.8267V20.2934L56.8204 20.8768L54.7683 21.8102V22.5102L55.734 23.0935L55.8547 23.6769L56.0961 24.4936L56.8204 25.427L56.4583 26.2437L56.6997 26.7104L57.1826 26.8271L56.4583 28.1105L53.9232 30.6772L54.044 31.1439L53.6818 31.844H52.9575L51.9918 33.0107L50.5432 33.244L50.4225 33.9441L49.9396 34.6441H47.2839L46.5596 34.9941L45.111 35.8108L43.421 36.1608L42.6967 36.5109L43.0589 37.0942L43.421 37.4442V38.1443L42.6967 38.961L41.8517 39.7777L40.7653 39.5443L40.5238 38.611L41.1274 37.9109L42.0931 37.7943L42.576 37.4442L42.0931 37.0942L41.4896 36.0442L40.2824 36.1608L37.3852 38.1443V38.961L37.7474 40.361L40.2824 43.3945V47.0114L37.3852 49.1115L34.9709 51.2116V49.3448L34.0052 48.8781L33.0395 48.1781L32.9188 47.0114L31.5909 46.6613L30.9873 45.8446L30.263 45.9613L30.0216 47.0114L29.7802 48.1781L29.0559 50.0448L29.7802 50.7449V52.845L30.3838 53.0783L32.3152 54.3617L33.0395 55.1784L33.1602 58.0952L33.6431 59.7286L34.1259 59.962L34.2466 60.4287H33.4016L32.3152 59.4953L30.8666 58.6786V57.8619L29.9009 57.0452L29.5387 55.4118L29.0559 53.6617L28.3316 51.9116L27.6073 51.4449L28.0902 50.1615L28.3316 48.8781C28.5772 46.1594 28.5919 44.6142 28.0902 41.7611L26.4001 42.9278L25.3137 42.4611L25.7966 38.7276L24.7101 37.9109L24.4687 36.0442L23.503 36.6275L21.6923 36.7442L20.2437 37.3276V38.3776L14.3286 43.6279L13.8458 44.0946L13.6043 46.3113C12.7515 49.867 12.1525 51.4275 10.7072 52.845C10.246 52.9994 10.1293 52.9032 10.1036 52.495V51.7949C10.0204 48.3057 9.69145 46.8784 10.1036 42.4611C10.3318 41.7643 10.468 41.3411 10.8279 40.1277C11.1125 39.3664 10.345 39.4277 10.1036 39.0776C9.86215 38.4943 9.91481 38.1054 10.345 36.9776C10.4717 35.6647 10.6002 34.9522 9.5 33.1277ZM11.9143 54.8284C12.2362 54.7895 12.9525 54.6417 13.2422 54.3617C13.5319 54.0817 13.6043 53.2339 13.6043 52.845L13.2422 51.2116L12.7593 50.7449L12.3972 51.7949L11.9143 53.0783V54.8284ZM53.9232 33.4774L54.889 31.9606L55.8547 31.4939C56.0559 31.5717 56.4583 31.7506 56.4583 31.844C56.4583 31.9606 56.0961 32.7773 56.0961 33.0107C56.0961 33.1974 55.6937 33.9441 55.4925 34.2941L54.5268 35.1108L53.6818 34.2941L53.9232 33.4774ZM55.1304 45.4946L54.5268 46.6613L53.9232 45.4946L54.2854 44.7946L53.9232 43.6279C53.5209 43.239 52.7402 42.3911 52.8368 42.1111C52.9334 41.8311 53.4404 41.5278 53.6818 41.4111L53.9232 39.1274C54.2452 39.0719 55.0097 38.961 55.4925 38.961C55.9754 38.961 56.2571 39.5054 56.3376 39.7777L56.0961 41.7611L55.1304 42.1111V42.9278L55.8547 43.3945L55.4925 44.0946H57.424L57.7861 44.5612C57.7861 44.6001 57.7861 44.7246 57.7861 44.9113C57.7861 45.0979 57.9471 45.4557 58.0276 45.6113V46.3113V46.6613C57.8666 46.778 57.5447 46.988 57.5447 46.8947C57.5447 46.8013 57.1423 46.3891 56.9411 46.1947C56.9411 46.0391 56.9411 45.7046 56.9411 45.6113C56.9411 45.518 56.9411 45.1835 56.9411 45.0279L55.8547 45.1446L55.3718 45.2613L55.1304 45.4946ZM56.3376 48.5281C56.241 48.5281 55.6535 48.4503 55.3718 48.4114C55.4121 48.1003 55.5167 47.4781 55.6133 47.4781C55.7098 47.4781 56.1364 47.0891 56.3376 46.8947L56.9411 47.3614C57.0618 47.5947 57.3274 48.0847 57.424 48.1781C57.5447 48.2948 57.9069 48.1781 58.1483 48.2948C58.3414 48.3881 58.7116 48.9559 58.8726 49.2281L58.3897 49.4615C58.108 49.6948 57.5206 50.1615 57.424 50.1615C57.3274 50.1615 56.6595 49.8903 56.3376 49.7547L56.4583 48.8781L56.3376 48.5281ZM58.7519 47.0114L59.114 48.4114C59.1945 48.5281 59.3796 48.7381 59.4762 48.6448C59.5727 48.5514 59.7578 47.9058 59.8383 47.5947V46.6613C59.959 46.3891 60.128 45.8446 59.8383 45.8446C59.5486 45.8446 59.1542 46.0002 58.9933 46.078L58.7519 47.0114ZM57.5447 50.7449L58.5104 51.2116C58.7519 50.9393 59.2589 50.3949 59.3554 50.3949C59.452 50.3949 59.8785 49.617 60.0797 49.2281C60.3212 49.3837 60.8282 49.7415 60.9247 49.9282C61.0455 50.1615 61.2869 50.9782 61.4076 51.0949C61.5042 51.1882 61.3674 52.3005 61.2869 52.845L60.804 53.6617L60.0797 52.9616C59.9993 52.9616 59.8383 53.0317 59.8383 53.3117C59.8383 53.6617 59.8383 54.0117 59.8383 54.245C59.8383 54.4784 60.6833 54.7117 59.8383 54.5951C59.1623 54.5017 58.5909 54.1673 58.3897 54.0117L58.269 53.3117L57.7861 52.2616C57.5045 52.2227 56.8928 52.1683 56.6997 52.2616C56.5066 52.3549 56.0559 52.5338 55.8547 52.6116C55.7742 52.495 55.6133 52.2383 55.6133 52.1449C55.6133 52.0516 55.9352 51.6394 56.0961 51.4449C56.3376 51.2893 56.8446 50.9549 56.9411 50.8615C57.0377 50.7682 57.3838 50.7449 57.5447 50.7449ZM24.8308 55.1784C25.193 55.0617 26.038 55.4118 26.4001 55.4118C26.6899 55.4118 27.1647 55.8785 27.3659 56.1118L28.3316 57.3952L29.2973 58.0952L29.418 58.5619L30.3838 59.0286L31.3495 59.4953L32.9188 61.012L33.1602 62.0621C33.0797 62.3732 32.9671 63.0421 33.1602 63.2288C33.4016 63.4621 33.7638 63.6955 34.0052 63.8122C34.1984 63.9055 34.7295 64.3955 34.9709 64.6289L35.3331 63.8122C35.4136 63.6566 35.6228 63.3921 35.8159 63.5788C36.0091 63.7655 36.2988 64.59 36.4195 64.9789V65.2122C36.1379 65.3678 35.5745 65.7023 35.5745 65.7956C35.5745 65.9123 35.3331 65.9123 35.3331 66.8456C35.3331 67.5923 35.3331 68.4791 35.3331 68.8291H34.2466L33.1602 67.779C33.0395 67.6235 32.6532 67.219 32.0738 66.8456C31.3495 66.379 30.3838 65.3289 30.3838 64.9789C30.3838 64.6289 30.0216 63.5788 30.0216 63.2288C30.0216 62.9488 29.5387 62.0232 29.2973 61.5954C28.9754 61.362 28.2833 60.802 28.0902 60.4287C27.897 60.0553 27.2854 59.1064 27.0037 58.6786L26.5209 57.5119L24.8308 57.0452L24.7101 56.2285L24.8308 55.1784ZM51.8711 61.7121C52.2332 61.4787 53.4404 60.4287 53.5611 60.1953C53.6577 60.0087 54.4866 59.8064 54.889 59.7286L57.5447 59.962L58.9933 60.1953L59.3554 60.5453V61.012L59.114 61.1287L58.5104 61.2454L57.7861 61.012H57.1826C56.9411 61.012 56.4341 61.012 56.3376 61.012C56.241 61.012 55.4121 61.012 55.0097 61.012C54.889 61.012 54.5993 61.0587 54.4061 61.2454C54.1647 61.4787 54.1647 61.4787 54.1647 61.5954C54.1647 61.7121 54.1647 61.9454 54.1647 62.0621C54.1647 62.1554 54.0842 62.5677 54.044 62.7621L54.1647 62.9955L54.6475 63.1121L55.1304 62.8788C55.2511 62.7232 55.5167 62.4121 55.6133 62.4121C55.734 62.4121 56.2168 62.2954 56.3376 62.1788C56.4341 62.0854 56.7802 61.9843 56.9411 61.9454C57.0216 62.0232 57.1826 62.2021 57.1826 62.2954C57.1826 62.4121 57.0618 62.6454 56.9411 62.7621C56.8204 62.8788 56.2168 63.2288 56.2168 63.3455C56.2168 63.4622 55.8547 63.8122 55.734 63.9288C55.6374 64.0222 55.6133 64.59 55.6133 64.8622C55.6535 64.9789 55.7581 65.2822 55.8547 65.5623C55.9513 65.8423 56.1364 66.3012 56.2168 66.4956C56.3376 66.5345 56.6031 66.6356 56.6997 66.729C56.7963 66.8223 57.0618 67.3901 57.1826 67.6624L56.9411 68.129C56.9009 68.2068 56.7963 68.3857 56.6997 68.4791C56.579 68.5957 56.3376 68.9457 56.0961 68.7124C55.903 68.5257 55.6133 68.0902 55.4925 67.8957C55.3316 67.8179 54.9855 67.639 54.889 67.5457C54.7683 67.429 54.5268 66.8456 54.5268 66.6123C54.5268 66.4256 54.4464 66.1456 54.4061 66.0289L54.2854 65.4456C54.1647 65.29 53.8991 64.9789 53.8025 64.9789C53.6818 64.9789 53.5611 64.7455 53.4404 64.9789C53.3197 65.2122 53.199 65.5623 53.199 65.7956C53.199 66.0289 53.3197 66.6123 53.3197 66.8456C53.3197 67.079 53.4404 67.8957 53.4404 68.0124C53.4404 68.129 53.3197 68.4791 53.3197 68.5957C53.3197 68.6891 53.2392 68.9458 53.199 69.0624C52.9173 68.9846 52.3298 68.8291 52.2332 68.8291C52.1125 68.8291 51.7504 68.5957 51.7504 68.4791C51.7504 68.3624 51.8711 68.0124 51.8711 67.8957C51.8711 67.779 51.8711 67.3123 51.9918 67.079C52.1125 66.8456 51.9918 66.8456 52.1125 66.729C52.2332 66.6123 52.3539 66.1456 52.2332 66.0289C52.1367 65.9356 51.6297 65.9123 51.3882 65.9123C51.348 65.8734 51.2675 65.7723 51.2675 65.6789C51.2675 65.5623 51.3882 65.2122 51.3882 65.0956C51.3882 65.0022 51.3882 64.5122 51.3882 64.2789C51.3882 64.1233 51.4124 63.7655 51.5089 63.5788C51.6055 63.3921 51.7101 62.801 51.7504 62.5288L51.6297 61.9454C51.6297 61.9454 51.5089 61.9454 51.8711 61.7121ZM39.7996 59.0286C40.041 59.1453 40.6446 59.4953 40.7653 59.4953C40.8618 59.4953 41.3689 59.3397 41.6103 59.2619C41.8115 59.1064 42.2621 58.7486 42.4553 58.5619C42.6967 58.3286 43.5417 57.8619 43.7832 57.5119C44.0246 57.1619 44.6282 56.3451 44.8696 56.2285C45.0627 56.1351 45.5939 55.6451 45.8353 55.4118C46.3182 55.334 47.2839 55.1551 47.2839 55.0617C47.2839 54.9684 47.9277 54.0895 48.2496 53.6617C48.5715 53.3506 49.2154 52.705 49.2154 52.6116C49.2154 52.5183 49.4568 52.5727 49.5775 52.6116L49.8189 53.0783L50.0604 53.895L50.5432 54.245L51.2675 54.5951L51.8711 55.1784C51.7504 55.334 51.4848 55.6451 51.3882 55.6451C51.2675 55.6451 51.0261 55.9951 50.7846 56.1118C50.5432 56.2285 50.3018 56.6952 50.1811 56.8118C50.0845 56.9052 49.8994 57.2396 49.8189 57.3952C49.8592 57.5896 49.9396 58.0019 49.9396 58.0952C49.9396 58.1886 50.1006 58.6008 50.1811 58.7953L50.4225 59.3786L51.0261 59.962L51.3882 60.662L51.1468 60.8954L50.6639 60.662L50.0604 60.7787V61.1287C50.2616 61.2065 50.6639 61.3854 50.6639 61.4787C50.6639 61.5954 50.9054 61.8287 50.9054 61.9454C50.9054 62.0387 50.8249 62.2176 50.7846 62.2954L50.3018 62.1788L50.0604 61.7121L49.5775 61.9454C49.5775 62.0621 49.5534 62.3421 49.4568 62.5288C49.3361 62.7621 49.0946 63.1121 48.9739 63.3455C48.8773 63.5322 48.7727 63.5788 48.7325 63.5788L48.6118 64.0455L48.2496 64.3955V65.3289C48.2496 65.4456 48.2255 65.7256 48.1289 65.9123C48.0323 66.0989 47.9277 66.379 47.8875 66.4956C47.7265 66.4956 47.3805 66.4956 47.2839 66.4956C47.1873 66.4956 46.3584 66.4956 45.956 66.4956C45.9158 66.4179 45.8353 66.2389 45.8353 66.1456C45.8353 66.0289 45.3525 65.4456 45.2317 65.4456C45.111 65.4456 44.8696 65.4456 44.3867 65.4456C44.0004 65.4456 43.5015 65.5234 43.3003 65.5623L43.0589 65.7956L42.4553 65.4456C42.4553 65.4456 42.407 65.4222 42.2139 65.3289C41.9724 65.2122 41.731 65.2122 41.4896 65.2122C41.2964 65.2122 41.1677 65.2122 41.1274 65.2122C41.0469 65.2122 40.8618 65.1889 40.7653 65.0956C40.6687 65.0022 40.6446 64.3566 40.6446 64.0455L40.1617 63.3455C40.0812 63.2677 39.8961 63.1121 39.7996 63.1121C39.6788 63.1121 39.6788 62.8788 39.4374 62.5288C39.196 62.1788 39.3167 62.1788 39.196 61.9454C39.0753 61.7121 39.196 61.4787 39.196 61.1287C39.196 60.7787 39.196 60.662 39.196 60.4287C39.196 60.1953 39.4374 59.8453 39.4374 59.7286C39.4374 59.6353 39.5984 59.4564 39.6788 59.3786L39.7996 59.0286ZM36.9024 69.0624C38.6407 69.5291 39.5581 69.9569 39.7996 70.1125C40.041 70.1125 40.548 70.1125 40.6446 70.1125C40.7653 70.1125 41.0067 70.3458 41.1274 70.1125C41.224 69.9258 41.57 69.568 41.731 69.4124L42.6967 69.6458L43.3003 70.1125H43.7832H44.3867L45.2317 69.8791L45.4732 70.1125C45.3927 70.1902 45.2317 70.3691 45.2317 70.4625C45.2317 70.5558 44.8294 70.7347 44.6282 70.8125L44.3867 71.0458H45.4732L46.1975 71.6292L46.801 72.0959C47.0022 72.2126 47.2839 72.4459 46.801 72.4459C46.1975 72.4459 45.7146 72.4459 45.4732 72.4459C45.2317 72.4459 44.5075 72.0959 44.266 72.2126C44.0246 72.3292 42.6967 72.3292 42.2139 72.2126C41.731 72.0959 40.886 71.8626 40.6446 71.8626C40.4514 71.8626 39.4374 71.707 38.9545 71.6292L37.2645 71.3959L35.8159 70.8125C35.8159 70.5792 35.8401 70.0425 35.9367 69.7625C36.0574 69.4124 35.9367 69.0624 36.1781 69.0624C36.3712 69.0624 36.7414 69.0624 36.9024 69.0624ZM48.3703 71.7459C48.6118 71.8626 49.5775 71.8626 49.9396 71.8626C50.3018 71.8626 50.7846 71.3959 50.9054 71.3959C51.0019 71.3959 51.348 71.707 51.5089 71.8626C51.5492 71.9014 51.6297 72.0259 51.6297 72.2126C51.6297 72.4459 51.6297 72.6793 51.2675 72.6793C50.9054 72.6793 50.9054 72.6793 50.6639 72.6793C50.4708 72.6793 49.6177 72.5237 49.2154 72.4459L48.3703 72.5626L47.8875 72.2126L47.7668 71.7459C47.8472 71.707 48.0323 71.6292 48.1289 71.6292C48.2255 71.6292 48.3301 71.707 48.3703 71.7459ZM58.5104 73.146C58.4702 73.0682 58.4863 72.8893 58.8726 72.7959C59.3554 72.6793 59.8383 72.2126 59.959 72.2126C60.0556 72.2126 60.5626 72.1348 60.804 72.0959L61.5283 71.8626L61.7697 72.0959C61.9307 72.2126 62.156 72.4926 61.7697 72.6793C61.3835 72.8659 60.5626 73.2237 60.2004 73.3793C60.0797 73.4182 59.79 73.5193 59.5969 73.6126C59.3554 73.7293 59.2347 74.196 58.8726 74.196C58.5829 74.196 58.269 74.196 58.1483 74.196L57.424 74.0793L57.7106 73.3793L58.5104 73.146ZM60.9247 65.5623L61.5283 65.0956L62.0112 65.4456L62.1319 65.9123C62.1319 65.9512 62.1077 66.0523 62.0112 66.1456C61.9146 66.2389 61.5686 66.2623 61.4076 66.2623L60.804 66.1456L60.9247 65.5623ZM63.0976 66.2623C64.2926 65.4498 65.6326 65.4456 66.5984 66.2623L66.4776 65.9123L66.3569 65.5623L65.8741 65.2122L65.3912 64.8622C65.19 64.8233 64.7393 64.7455 64.5462 64.7455C64.3531 64.7455 64.0633 64.7455 63.9426 64.7455L63.5805 65.0956L63.0976 65.3289L62.8562 65.5623V66.0289L63.0976 66.2623ZM47.7668 88.43C48.0565 88.2433 49.0142 87.2633 49.4568 86.7966C49.8994 86.9522 50.8571 87.17 51.1468 86.7966C51.5089 86.3299 51.9918 85.9799 52.8368 85.7466C53.5128 85.5599 54.1647 85.6688 54.4061 85.7466C54.6073 85.2799 55.058 84.2765 55.2511 83.9965C55.4443 83.7165 55.9754 82.7131 56.2168 82.2464H57.5447H58.1483L58.9933 80.8463L59.2347 79.6796L61.7697 78.5129C62.0514 78.3573 62.6872 78.1395 62.9769 78.5129C63.2666 78.8862 64.2243 79.7574 64.6669 80.1463H65.3912L65.8741 78.5129L66.1155 77.4628C66.2362 77.2684 66.6466 76.8561 67.3227 76.7628C67.9987 76.6695 68.892 76.4906 69.2541 76.4128L68.6505 75.246L70.4613 75.7127L73.962 76.6461C74.2034 76.6072 74.5414 76.7161 73.962 77.4628C73.3826 78.2095 72.8353 79.2518 72.6341 79.6796V80.8463L75.5313 82.1297L78.3077 83.1798C78.5894 82.9075 79.1769 82.2697 79.2735 81.8964C79.37 81.523 79.3137 80.263 79.2735 79.6796C79.4344 78.7462 79.8288 76.8095 80.1185 76.5294C80.4806 76.1794 80.8428 74.3127 81.2049 74.6627C81.5671 75.0127 81.6878 76.5294 81.9292 76.9961C82.1224 77.3695 83.0559 78.7073 83.4985 79.3296L83.8607 80.8463L84.3435 82.1297V83.1798C71.3958 93.4125 62.0112 95.6637 48.3703 94.847C47.5125 94.5928 47.3065 94.4079 47.2839 94.0303V93.2136L47.5253 92.6302L47.2839 91.5802L46.4389 91.3468L46.1975 89.2467L46.801 88.43H47.7668ZM67.8055 64.5122L68.1677 63.9288L67.8055 63.4622L67.3227 63.3455C67.0007 63.3455 66.3811 63.2988 66.4776 63.1121C66.5742 62.9255 66.5984 62.6454 66.5984 62.5288L67.3227 62.2954L68.6505 62.5288H69.9784L70.9441 62.6454L71.1855 63.3455V64.2789L71.7891 64.8622V65.2122L72.1513 65.6789C72.2317 65.7567 72.441 65.8656 72.6341 65.6789C72.8273 65.4922 74.0827 64.9789 74.6863 64.7455C74.807 64.3955 75.0726 63.6722 75.1692 63.5788C75.2899 63.4622 75.652 63.3455 75.7727 63.3455C75.8693 63.3455 76.2958 63.7344 76.497 63.9288L77.5835 64.5122L78.6699 64.7455L79.7563 64.8622L81.2049 65.0956L81.9292 65.6789L82.5328 65.5623L84.1021 66.4956L84.4642 67.079L85.5507 67.5457V67.8957L85.7921 68.4791L86.8785 68.7124L87.6028 69.4124L87.2407 70.3458V70.9292L87.965 71.7459L88.81 72.5626C89.0112 72.8737 89.4377 73.496 89.5343 73.496C89.6309 73.496 90.2183 73.8849 90.5 74.0793V74.896H90.0171L89.5343 74.3127C89.3331 74.2349 88.8341 74.0793 88.4478 74.0793C88.0615 74.0793 87.7235 74.0793 87.6028 74.0793L86.8785 73.846L86.275 72.4459L85.43 71.2792L83.4985 71.3959L82.8949 71.7459C82.8145 71.9792 82.6535 72.4693 82.6535 72.5626C82.6535 72.6559 82.1706 72.9904 81.9292 73.146C81.6475 73.146 81.0118 73.146 80.7221 73.146C80.3599 73.146 79.2735 73.0293 79.2735 72.7959C79.2735 72.6093 78.8711 72.2515 78.6699 72.0959L76.8592 71.7459L75.8934 71.8626L75.5313 71.2792C75.5715 71.2792 75.7003 71.2092 75.8934 70.9292C76.0866 70.6492 76.3763 70.268 76.497 70.1125C76.2958 69.6069 75.821 68.5257 75.5313 68.2457C75.2416 67.9657 72.9158 67.1179 71.7891 66.729L69.9784 66.2623L68.8919 66.4956L69.0127 65.6789L68.6505 65.3289C68.57 65.1344 68.4574 64.7455 68.6505 64.7455C68.8437 64.7455 69.3748 64.7455 69.6162 64.7455L69.3748 64.2789L68.1677 64.5122H67.8055Z" stroke="#51362D" stroke-width="0.5" stroke-linejoin="round"/>
</svg>
