<svg width="100" height="100" viewBox="0 0 100 100" fill="none" xmlns="http://www.w3.org/2000/svg">
<path d="M16.3333 79.1667H56.4167C58.8212 79.168 61.1974 78.6483 63.3819 77.6435C65.5663 76.6386 67.5072 75.1725 69.0708 73.3459L90.3292 48.5459C90.7743 48.0275 91.0851 47.4075 91.2343 46.7407C91.3834 46.0739 91.3662 45.3806 91.1843 44.7219C91.0023 44.0633 90.6612 43.4595 90.1909 42.9638C89.7206 42.4681 89.1356 42.0956 88.4875 41.8792L80.2875 39.1459C78.3056 38.5017 76.1955 38.3559 74.1439 38.7215C72.0923 39.087 70.1624 39.9526 68.525 41.2417L55.2542 51.8542L52.6833 46.7084C51.3061 43.9345 49.1796 41.6018 46.5447 39.9743C43.9099 38.3469 40.8719 37.4897 37.775 37.5H16.3333C11.7375 37.5 8 41.2375 8 45.8334V70.8334C8 75.4292 11.7375 79.1667 16.3333 79.1667ZM16.3333 45.8334H37.775C40.9542 45.8334 43.8083 47.5959 45.2292 50.4375L47.0917 54.1667H28.8333V62.5H53.8917C54.5327 62.4916 55.1631 62.3347 55.7333 62.0417L55.7458 62.0375L55.7625 62.0292H55.775L55.7833 62.025H55.8L55.8042 62.0209C55.8417 62.0334 55.8167 62.0167 55.8167 62.0167C55.8583 62.0167 55.825 62.0125 55.825 62.0125H55.8292L55.8375 62.0084L55.85 62.0042L55.8583 62L55.8667 61.9959L55.8792 61.9917L55.8875 61.9875C55.9 61.9875 55.8917 61.9834 55.8958 61.9834L55.9083 61.975L55.9167 61.9709L55.925 61.9667L55.9375 61.9625L55.9458 61.9584H55.95L55.9583 61.9542H55.9625L55.9708 61.95L55.9792 61.9459C56.0167 61.9417 55.9917 61.9417 55.9917 61.9417L56 61.9375C56.1606 61.8406 56.3138 61.732 56.4583 61.6125L73.7333 47.7917C74.825 46.925 76.3292 46.6542 77.65 47.0959L79.9708 47.8709L62.75 67.9667C61.9579 68.8662 60.9835 69.5869 59.8916 70.0811C58.7997 70.5754 57.6152 70.8318 56.4167 70.8334H16.3333V45.8334ZM66.3333 3.91904e-05H66.2625C65.5833 0.00837252 62.0708 0.162539 58 2.93754C54.0375 0.237539 50.6083 0.0208722 49.8 0.00420555L49.675 3.91904e-05H49.6583C46.3208 3.91904e-05 43.1792 1.30421 40.8292 3.65837C38.4708 6.02087 37.1667 9.15837 37.1667 12.5C37.1667 15.8417 38.4708 18.9792 40.7542 21.2667L54.9792 36.2084C55.3705 36.6147 55.8399 36.9378 56.3591 37.1583C56.8784 37.3789 57.4368 37.4924 58.0009 37.492C58.565 37.4916 59.1233 37.3773 59.6422 37.1561C60.1611 36.9348 60.63 36.611 61.0208 36.2042L75.1708 21.3375C77.5333 18.9792 78.8333 15.8417 78.8333 12.5C78.8333 9.15837 77.5292 6.02087 75.175 3.66254C74.0181 2.49814 72.6416 1.57487 71.1253 0.946186C69.609 0.317505 67.9831 -0.00408608 66.3417 3.91904e-05H66.3333ZM70.5 12.5C70.5 13.6125 70.0667 14.6584 69.2042 15.5209L58 27.2917L46.7208 15.4459C45.9333 14.6584 45.5 13.6125 45.5 12.5C45.5 11.3875 45.9333 10.3417 46.725 9.55004C47.4785 8.78361 48.5045 8.34625 49.5792 8.33337C49.6833 8.33754 51.6708 8.4667 54.025 10.3542C54.3625 10.625 54.7042 10.9334 55.0542 11.2792L58 14.225L60.9458 11.2792C61.2958 10.9334 61.6375 10.625 61.975 10.3542C64.1792 8.58337 66.0417 8.36254 66.3583 8.33754C66.9014 8.33744 67.4391 8.4449 67.9404 8.65372C68.4418 8.86255 68.8968 9.1686 69.2792 9.5542C70.0667 10.3417 70.5 11.3875 70.5 12.5Z" fill="#51362D"/>
</svg>
