<svg width="100" height="100" viewBox="0 0 100 100" fill="none" xmlns="http://www.w3.org/2000/svg">
<g clip-path="url(#clip0)">
<path d="M84.25 93.75L78.2469 72.7344C78.0771 72.1421 78.0861 71.5128 78.273 70.9256C78.4598 70.3385 78.816 69.8197 79.2969 69.4344L93.3563 58.1875L89.125 41.2531L80.5687 51.9531C80.2751 52.3189 79.903 52.614 79.4801 52.8169C79.0571 53.0197 78.5941 53.125 78.125 53.125H62.5V46.875H76.625L88.1875 32.4219C88.5517 31.9681 89.0353 31.6249 89.584 31.4311C90.1326 31.2373 90.7245 31.2006 91.2929 31.325C91.8613 31.4494 92.3837 31.73 92.8013 32.1353C93.2188 32.5405 93.5149 33.0543 93.6562 33.6188L99.9062 58.6188C100.052 59.1986 100.028 59.8082 99.8376 60.3749C99.6471 60.9416 99.2978 61.4417 98.8312 61.8156L84.8312 73.0156L90.2625 92.0344L84.25 93.75Z" fill="#51362D"/>
<path d="M71.875 17.1875C71.875 15.0243 72.5165 12.9096 73.7183 11.111C74.9201 9.31229 76.6283 7.91041 78.6269 7.08257C80.6255 6.25474 82.8246 6.03814 84.9463 6.46017C87.068 6.88219 89.0168 7.92389 90.5465 9.45353C92.0761 10.9832 93.1178 12.932 93.5398 15.0537C93.9619 17.1754 93.7453 19.3745 92.9174 21.3731C92.0896 23.3717 90.6877 25.0799 88.8891 26.2817C87.0904 27.4835 84.9757 28.125 82.8125 28.125C79.9127 28.1217 77.1326 26.9683 75.0822 24.9178C73.0317 22.8674 71.8783 20.0873 71.875 17.1875V17.1875ZM78.125 17.1875C78.125 18.1146 78.3999 19.0209 78.915 19.7917C79.4301 20.5626 80.1621 21.1634 81.0187 21.5182C81.8752 21.873 82.8177 21.9658 83.727 21.7849C84.6363 21.6041 85.4715 21.1576 86.1271 20.5021C86.7826 19.8465 87.2291 19.0113 87.4099 18.102C87.5908 17.1927 87.498 16.2502 87.1432 15.3937C86.7884 14.5371 86.1876 13.8051 85.4167 13.29C84.6459 12.7749 83.7396 12.5 82.8125 12.5C81.5698 12.5017 80.3785 12.9961 79.4998 13.8748C78.621 14.7535 78.1267 15.9448 78.125 17.1875V17.1875Z" fill="#51362D"/>
<path d="M62.5125 59.375C60.8516 59.375 59.2587 58.7152 58.0842 57.5408C56.9098 56.3663 56.25 54.7734 56.25 53.1125V46.8875C56.25 45.2266 56.9098 43.6337 58.0842 42.4592C59.2587 41.2848 60.8516 40.625 62.5125 40.625H68.75V31.25H31.25V40.625H37.4875C39.1484 40.625 40.7413 41.2848 41.9158 42.4592C43.0902 43.6337 43.75 45.2266 43.75 46.8875V53.1125C43.75 54.7734 43.0902 56.3663 41.9158 57.5408C40.7413 58.7152 39.1484 59.375 37.4875 59.375H31.25V68.75H68.75V59.375H62.5125Z" fill="#C2C457"/>
<path d="M15.75 93.75L21.7531 72.7344C21.9225 72.1421 21.9132 71.5129 21.7264 70.9258C21.5396 70.3388 21.1837 69.8199 20.7031 69.4344L6.64375 58.1875L10.8781 41.2563L19.4344 51.9531C19.7277 52.3185 20.0993 52.6134 20.5216 52.8162C20.944 53.019 21.4065 53.1245 21.875 53.125H37.5V46.875H23.375L11.8156 32.4219C11.4515 31.9681 10.9678 31.6249 10.4192 31.4311C9.8705 31.2373 9.27863 31.2006 8.71021 31.325C8.14178 31.4494 7.61938 31.73 7.20184 32.1353C6.78429 32.5405 6.48819 33.0543 6.34688 33.6188L0.0968768 58.6188C-0.048884 59.1986 -0.0250644 59.8082 0.165504 60.3749C0.356072 60.9416 0.705372 61.4417 1.17188 61.8156L15.1719 73.0156L9.7375 92.0344L15.75 93.75Z" fill="#51362D"/>
<path d="M17.1875 28.125C15.0243 28.125 12.9096 27.4835 11.111 26.2817C9.31229 25.0799 7.91041 23.3717 7.08257 21.3731C6.25474 19.3745 6.03814 17.1754 6.46017 15.0537C6.88219 12.932 7.92389 10.9832 9.45353 9.45353C10.9832 7.92389 12.932 6.88219 15.0537 6.46017C17.1754 6.03814 19.3745 6.25474 21.3731 7.08257C23.3717 7.91041 25.0799 9.31229 26.2817 11.111C27.4835 12.9096 28.125 15.0243 28.125 17.1875C28.1217 20.0873 26.9683 22.8674 24.9178 24.9178C22.8674 26.9683 20.0873 28.1217 17.1875 28.125ZM17.1875 12.5C16.2604 12.5 15.3541 12.7749 14.5833 13.29C13.8124 13.8051 13.2116 14.5371 12.8568 15.3937C12.502 16.2502 12.4092 17.1927 12.5901 18.102C12.7709 19.0113 13.2174 19.8465 13.8729 20.5021C14.5285 21.1576 15.3637 21.6041 16.273 21.7849C17.1823 21.9658 18.1248 21.873 18.9813 21.5182C19.8379 21.1634 20.57 20.5626 21.085 19.7917C21.6001 19.0209 21.875 18.1146 21.875 17.1875C21.8734 15.9448 21.379 14.7535 20.5002 13.8748C19.6215 12.9961 18.4302 12.5017 17.1875 12.5V12.5Z" fill="#51362D"/>
</g>
<defs>
<clipPath id="clip0">
<rect width="100" height="100" fill="white"/>
</clipPath>
</defs>
</svg>
