<svg width="111" height="111" viewBox="0 0 111 111" fill="none" xmlns="http://www.w3.org/2000/svg">
<path d="M108.475 91.4907L92.9634 106.872C90.6736 109.219 87.639 110.014 84.6838 110.017C71.6149 109.623 59.263 103.201 49.1216 96.6068C32.4754 84.4916 17.2025 69.4703 7.61875 51.3194C3.94317 43.7083 -0.369442 33.9971 0.044497 25.5025C0.0819 22.307 0.943649 19.171 3.19457 17.1117L18.7064 1.61388C21.9274 -1.12474 25.0416 -0.177016 27.1018 3.01413L39.5739 26.676C40.8865 29.4792 40.1326 32.4822 38.1729 34.4846L32.458 40.1943C32.1052 40.6774 31.8805 41.2274 31.8747 41.8259C34.064 50.3076 40.7001 58.126 46.5627 63.5068C52.4253 68.8877 58.7266 76.1774 66.9077 77.9045C67.9189 78.1867 69.1576 78.2861 69.8812 77.6137L76.5293 70.8552C78.821 69.1191 82.1294 68.2709 84.5752 69.6914L84.6919 69.6914L107.194 82.9824C110.498 85.054 110.841 89.0562 108.475 91.4907V91.4907Z" fill="#51362D"/>
</svg>
