<svg width="100" height="100" viewBox="0 0 100 100" fill="none" xmlns="http://www.w3.org/2000/svg">
<path d="M87.4999 12.5V20.8333C87.4999 28.5688 84.427 35.9875 78.9572 41.4573C73.4874 46.9271 66.0687 50 58.3333 50H54.1666V54.1667H74.9999V83.3333C74.9999 85.5435 74.122 87.6631 72.5592 89.2259C70.9963 90.7887 68.8767 91.6667 66.6666 91.6667H33.3333C31.1231 91.6667 29.0035 90.7887 27.4407 89.2259C25.8779 87.6631 24.9999 85.5435 24.9999 83.3333V54.1667H45.8333V41.6667C45.8333 33.9312 48.9062 26.5125 54.376 21.0427C59.8458 15.5729 67.2644 12.5 74.9999 12.5H87.4999ZM22.9166 8.33334C27.9165 8.32929 32.8442 9.5266 37.2848 11.8245C41.7253 14.1224 45.5488 17.4535 48.4333 21.5375C44.0306 27.3233 41.6529 34.3963 41.6666 41.6667V45.8333H39.5833C31.2952 45.8333 23.3467 42.5409 17.4862 36.6804C11.6257 30.8199 8.33325 22.8714 8.33325 14.5833V8.33334H22.9166Z" fill="#C2C457"/>
<path d="M87.5 12.6667V21C87.5 28.7355 84.4271 36.1541 78.9573 41.6239C73.4875 47.0938 66.0688 50.1667 58.3333 50.1667H54.1667V54.3333H75V83.5C75 85.7101 74.122 87.8297 72.5592 89.3925C70.9964 90.9553 68.8768 91.8333 66.6667 91.8333H33.3333C31.1232 91.8333 29.0036 90.9553 27.4408 89.3925C25.878 87.8297 25 85.7101 25 83.5V54.3333H45.8333V41.8333C45.8333 34.0979 48.9062 26.6792 54.3761 21.2094C59.8459 15.7396 67.2645 12.6667 75 12.6667H87.5Z" fill="#51362D"/>
</svg>
